<?xml version="1.0" encoding="UTF-8"?>
<svg id="Layer_1" data-name="Layer 1" xmlns="http://www.w3.org/2000/svg" xmlns:xlink="http://www.w3.org/1999/xlink" viewBox="0 0 1700.79 4818.9">
  <defs>
    <style>
      .cls-1 {
        fill: url(#linear-gradient);
      }

      .cls-1, .cls-2, .cls-3, .cls-4 {
        stroke-width: 0px;
      }

      .cls-5 {
        opacity: .9;
      }

      .cls-2 {
        fill: url(#linear-gradient-2);
      }

      .cls-3 {
        fill: #323578;
      }

      .cls-4 {
        fill: url(#linear-gradient-3);
      }
    </style>
    <linearGradient id="linear-gradient" x1="319.95" y1="819.06" x2="319.95" y2="653.13" gradientUnits="userSpaceOnUse">
      <stop offset="0" stop-color="#1e0f27"/>
      <stop offset="1" stop-color="#20397f"/>
    </linearGradient>
    <linearGradient id="linear-gradient-2" x1="2755.6" y1="821.11" x2="2714.12" y2="666.3" gradientTransform="translate(2958.89) rotate(-180) scale(1 -1)" xlink:href="#linear-gradient"/>
    <linearGradient id="linear-gradient-3" x1="195.62" y1="777.46" x2="361.55" y2="777.46" xlink:href="#linear-gradient"/>
  </defs>
  <g>
    <path class="cls-3" d="m660.33,678.09c-.7.49-2.8,1.99-62.35,56.23l-66.91-60.74v125.02h19.87v-76.12l47.09,42.74,2.1-1.91c26.53-24.17,39.28-35.69,45.26-41.03v76.32h19.87v-124.01l-4.93,3.49Z"/>
    <rect class="cls-3" x="727.3" y="674.25" width="21.37" height="123.69"/>
    <rect class="cls-3" x="1362.99" y="674.25" width="21.37" height="123.69"/>
    <path class="cls-3" d="m907.81,692.21c-5.68-5.68-12.28-10.13-19.81-13.37-7.53-3.23-15.65-4.85-24.37-4.85h-51.9v123.61h52.3c7.66,0,15.22-1.58,22.68-4.75,7.46-3.17,14.1-7.53,19.91-13.08,5.81-5.55,10.5-12.05,14.07-19.51,3.57-7.46,5.35-15.48,5.35-24.07s-1.62-16.64-4.85-24.17c-3.24-7.53-7.69-14.13-13.37-19.81Zm-6.14,59.83c-2.38,4.89-5.55,9.21-9.51,12.97-3.96,3.76-8.42,6.74-13.37,8.91-4.95,2.18-10,3.27-15.15,3.27h-30.71v-82.61h30.9c5.55,0,10.83,1.12,15.85,3.37,5.02,2.25,9.41,5.32,13.17,9.21,3.76,3.9,6.77,8.36,9.01,13.37,2.25,5.02,3.37,10.3,3.37,15.85s-1.19,10.77-3.57,15.65Z"/>
    <path class="cls-3" d="m1259.24,741.34c-.66,5.02-2.18,9.7-4.55,14.06-2.38,4.36-5.42,8.15-9.11,11.39-3.7,3.24-7.93,5.78-12.68,7.63-4.75,1.85-9.71,2.77-14.86,2.77s-10.1-.92-14.86-2.77c-4.76-1.85-9.01-4.39-12.78-7.63-3.76-3.24-6.9-7.03-9.41-11.39-2.51-4.36-4.03-9.05-4.55-14.06v-67.35h-21.39v62.2c0,8.59,1.65,16.64,4.95,24.17,3.3,7.53,7.79,14.1,13.47,19.71,5.67,5.62,12.35,10.04,20.01,13.27,7.66,3.24,15.85,4.85,24.56,4.85s16.9-1.62,24.56-4.85c7.66-3.23,14.29-7.66,19.91-13.27,5.61-5.61,10.07-12.18,13.37-19.71,3.3-7.53,4.95-15.58,4.95-24.17v-62.2h-21.59v67.35Z"/>
    <polygon class="cls-3" points="1437.1 673.99 1437.1 694.19 1480.09 694.19 1480.09 797.6 1501.48 797.6 1501.48 694.19 1545.06 694.19 1545.06 673.99 1437.1 673.99"/>
    <g>
      <path class="cls-3" d="m1026.91,725.81h-.01l-3.97.04c-3.19-.11-5.8-.61-7.94-1.36-1.13-.44-2.2-.92-3.13-1.48-1.32-.8-2.42-1.72-3.32-2.77-2.31-2.71-3.47-6.11-3.47-10.2,0-4.49,1.25-8.25,3.76-11.29,2.51-3.04,6.4-4.56,11.69-4.56h69.73v-20.21h-74.48c-4.49,0-8.69.86-12.58,2.57-3.9,1.72-7.3,4.16-10.2,7.33-2.91,3.17-5.22,6.97-6.93,11.39-1.72,4.43-2.57,9.34-2.57,14.76,0,4.89.96,9.51,2.87,13.87,1.91,4.36,4.52,8.19,7.83,11.49,3.3,3.3,7.13,5.91,11.49,7.83,4.36,1.92,9.05,2.87,14.06,2.87h.9c2.14-4.94,6.29-15.22,8.45-20.36-.73.03-1.44.03-2.18.07Z"/>
      <path class="cls-3" d="m1089.27,747.68c-1.98-4.36-4.62-8.19-7.92-11.49-3.3-3.3-7.17-5.91-11.59-7.83-4.26-1.84-8.73-2.77-13.41-2.84v-.03s-.46,0-.46,0c-.03,0-.07,0-.1,0h0s-2.54.03-2.54.03l-8.7,20.43h2.5c7.2.27,18.22,1.81,21.71,8.29,1.11,2.14,1.7,4.56,1.7,7.3,0,4.62-1.26,8.42-3.76,11.39-2.51,2.97-6.47,4.46-11.89,4.46h-69.33v20.21h74.29c4.36,0,8.52-.86,12.48-2.57,3.96-1.71,7.43-4.16,10.4-7.33,2.97-3.17,5.31-6.96,7.03-11.39,1.71-4.42,2.57-9.34,2.57-14.76,0-4.88-.99-9.51-2.97-13.87Z"/>
    </g>
  </g>
  <g class="cls-5">
    <g>
      <path class="cls-1" d="m278.35,735.86l.24.24,82.96,82.96v-165.93c-2.8,2.19-43.05,42.43-83.2,82.73Z"/>
      <path class="cls-2" d="m278.83,735.86l-.24.24-82.96,82.96v-165.93c2.8,2.19,43.05,42.43,83.2,82.73Z"/>
      <path class="cls-4" d="m278.35,735.86c-41.42,41.57-82.73,83.2-82.73,83.2h165.93l-82.96-82.96-.24-.24Z"/>
    </g>
  </g>
</svg>